<svg id="Layer_1" data-name="Layer 1" xmlns="http://www.w3.org/2000/svg" viewBox="0 0 180 180"><defs><style>.cls-1{fill:#fff;stroke:#0288db;stroke-miterlimit:10;stroke-width:8px;}.cls-2{fill:#0288db;}</style></defs><circle class="cls-1" cx="90.37" cy="90.3" r="85.29"/><path class="cls-2" d="M91.27,156.34A4.88,4.88,0,0,1,87.92,155l-49-46.22a4.92,4.92,0,0,1-1.53-3.53l-.18-63.19a4.88,4.88,0,0,1,8.12-3.65L80.74,70a4.88,4.88,0,0,1-6.5,7.28L47,53l.15,50.15,47.46,44.79a4.87,4.87,0,0,1-3.35,8.42Z"/><path class="cls-2" d="M102.19,145.42a4.89,4.89,0,0,1-3.43-1.4L75.12,120.69A4.88,4.88,0,0,1,82,113.75l23.64,23.32a4.88,4.88,0,0,1-3.42,8.35Z"/><path class="cls-2" d="M113,134.61a4.88,4.88,0,0,1-3.35-1.33l-23-21.74a4.88,4.88,0,1,1,6.7-7.09l23,21.74a4.87,4.87,0,0,1-3.35,8.42Z"/><path class="cls-2" d="M125.3,122.1a4.9,4.9,0,0,1-3.19-1.19L99.32,101.19a4.88,4.88,0,0,1,6.38-7.38l19.35,16.74,8.52-8.59-.09-48.72L80.7,102.35a4.88,4.88,0,0,1-6.64-7.15l61-56.71a4.87,4.87,0,0,1,8.2,3.56l.1,61.91a4.82,4.82,0,0,1-1.41,3.44l-13.15,13.26A4.89,4.89,0,0,1,125.3,122.1Z"/></svg>