<svg id="Layer_1" data-name="Layer 1" xmlns="http://www.w3.org/2000/svg" viewBox="0 0 157.13 124.41"><defs><style>.cls-1{fill:#0288db;}</style></defs><path class="cls-1" d="M139.6,124.41H17.53A17.53,17.53,0,0,1,0,106.88V29.76A17.54,17.54,0,0,1,17.53,12.22H43.27c2-8.6,8.63-11.53,12-11.87l.44,0,2.34,0C61.49,0,68.38,0,78.57,0S95.64,0,99,.28l2.78.07c3.42.34,10.06,3.27,12,11.87H139.6A17.54,17.54,0,0,1,155,21.4h0a17.61,17.61,0,0,1,2.11,8.36v77.12a17.51,17.51,0,0,1-17.53,17.53ZM17.53,23.49A6.27,6.27,0,0,0,12,26.77a6.21,6.21,0,0,0-.76,3v77.12a6.25,6.25,0,0,0,6.27,6.26H139.6a6.26,6.26,0,0,0,5.52-3.28,6.16,6.16,0,0,0,.75-3V29.76a6.2,6.2,0,0,0-.75-3h0a6.29,6.29,0,0,0-5.52-3.28H105.13l-1-4.4h0a18.13,18.13,0,0,0-.76-2.29l-.25-.62-.1-.66c-.44-3-1.77-3.75-2.38-3.94l-2.29-.06c-2.09-.15-7.21-.32-19.76-.24h-.07c-12.55-.08-17.67.09-19.76.24l-.31,0-2,0c-.61.19-1.93,1-2.38,3.94l-.1.66-.25.62A17.76,17.76,0,0,0,53,19.11l-1,4.35-4.47,0Z"/><rect class="cls-1" x="21.94" y="33.83" width="12.01" height="11.57"/><path class="cls-1" d="M79.38,103.11a35,35,0,1,1,35-35A35.06,35.06,0,0,1,79.38,103.11Zm0-58.76A23.75,23.75,0,1,0,103.12,68.1,23.77,23.77,0,0,0,79.38,44.35Z"/></svg>