<svg id="Layer_1" data-name="Layer 1" xmlns="http://www.w3.org/2000/svg" viewBox="0 0 130.53 146.61"><defs><style>.cls-1{fill:#0288db;}</style></defs><path class="cls-1" d="M66.49,146.61A6,6,0,0,1,62.37,145L2.11,88.1A6,6,0,0,1,.23,83.76L0,6a6,6,0,0,1,10-4.5L53.53,40.39a6,6,0,0,1-8,9L12,19.44l.18,61.7,58.39,55.11a6,6,0,0,1-4.12,10.36Z"/><path class="cls-1" d="M79.92,133.17a6,6,0,0,1-4.21-1.72l-29.09-28.7a6,6,0,0,1,8.43-8.54L84.14,122.9a6,6,0,0,1-4.22,10.27Z"/><path class="cls-1" d="M93.23,119.87a6,6,0,0,1-4.12-1.64L60.8,91.49A6,6,0,0,1,69,82.77l28.31,26.74a6,6,0,0,1-4.12,10.36Z"/><path class="cls-1" d="M108.36,104.48a6,6,0,0,1-3.93-1.46l-28-24.26a6,6,0,0,1,7.85-9.08l23.81,20.59,10.48-10.56-.1-59.95L53.49,80.18a6,6,0,1,1-8.17-8.79l75-69.78A6,6,0,0,1,130.4,6l.13,76.17a6,6,0,0,1-1.74,4.24l-16.17,16.3A6,6,0,0,1,108.36,104.48Z"/></svg>