<svg id="Layer_1" data-name="Layer 1" xmlns="http://www.w3.org/2000/svg" viewBox="0 0 24.85 27.91"><defs><style>.cls-1{fill:#fff;}</style></defs><path class="cls-1" d="M12.66,27.91a1.12,1.12,0,0,1-.78-.31L.4,16.77A1.11,1.11,0,0,1,0,16L0,1.15A1.14,1.14,0,0,1,1.9.29l8.29,7.4A1.14,1.14,0,0,1,8.67,9.4L2.29,3.7l0,11.75L13.44,25.94a1.14,1.14,0,0,1-.78,2Z"/><path class="cls-1" d="M15.22,25.36a1.17,1.17,0,0,1-.81-.33L8.88,19.56a1.14,1.14,0,1,1,1.6-1.62L16,23.4A1.15,1.15,0,0,1,16,25,1.16,1.16,0,0,1,15.22,25.36Z"/><path class="cls-1" d="M17.75,22.82a1.12,1.12,0,0,1-.78-.31l-5.39-5.09a1.14,1.14,0,1,1,1.57-1.66l5.38,5.09a1.14,1.14,0,0,1-.78,2Z"/><path class="cls-1" d="M20.63,19.89a1.13,1.13,0,0,1-.75-.28L14.54,15A1.14,1.14,0,0,1,16,13.27l4.53,3.92,2-2,0-11.42L10.18,15.27a1.14,1.14,0,0,1-1.55-1.68L22.91.31A1.14,1.14,0,0,1,24.14.09a1.16,1.16,0,0,1,.69,1l0,14.5a1.14,1.14,0,0,1-.33.81l-3.08,3.1A1.1,1.1,0,0,1,20.63,19.89Z"/></svg>